<?xml version="1.0" encoding="utf-8"?>
<svg version="1.1" xmlns="http://www.w3.org/2000/svg" xmlns:xlink="http://www.w3.org/1999/xlink" x="0px" y="0px" viewBox="0 0 1000 1000" enable-background="new 0 0 1000 1000" xml:space="preserve">
<g><path d="M867.5,10h-735C64.8,10,10,64.8,10,132.5v735C10,935.2,64.8,990,132.5,990h735c67.7,0,122.5-54.8,122.5-122.5v-735C990,64.8,935.2,10,867.5,10z M928.8,867.5c0,33.8-27.4,61.3-61.3,61.3h-735c-33.8,0-61.3-27.4-61.3-61.3v-735c0-33.8,27.4-61.3,61.3-61.3h735c33.8,0,61.3,27.4,61.3,61.3V867.5z M674.1,203.4c-12.1-12-31.7-12-43.8,0L355.6,477.2c-6.5,6.4-9.2,14.9-8.8,23.3c-0.4,8.4,2.3,16.9,8.8,23.3l274.8,273.8c12.1,12,31.7,12,43.8,0c12.1-12,12.1-31.5,0-43.6L419.6,500.5l254.5-253.5C686.2,234.9,686.2,215.4,674.1,203.4z"/></g>
</svg>