
<svg version="1.1" xmlns="http://www.w3.org/2000/svg" xmlns:xlink="http://www.w3.org/1999/xlink" x="0px" y="0px"
	 viewBox="0 0 200.3334961 66.6669998" enable-background="new 0 0 200.3334961 66.6669998" xml:space="preserve">
<rect x="0.3335" y="0.0001667" fill="#183D6E" width="200" height="66.6666641"/>
<g>
	<path fill="#FFFFFF" d="M105.10849,19.8072948v4.6728516h-7.8955078v21.717123h-5.5501328v-21.717123h-7.9313126v-4.6728516
		H105.10849z"/>
	<path fill="#FFFFFF" d="M114.4183807,26.6822948h5.1741562l2.9720078,14.0543613l3.0436172-14.0543613h5.3173904
		l-5.6575623,19.5149746h-5.2457657l-3.0615234-14.2154942l-3.0973282,14.2154942h-5.2994843l-5.4785156-19.5149746h5.4785156
		l3.0436249,14.0006504L114.4183807,26.6822948z"/>
	<path fill="#FFFFFF" d="M146.4528961,27.0778027c1.360672,0.6103516,2.4853516,1.5722656,3.3723907,2.8873711
		c0.7991486,1.1588535,1.3183594,2.5032558,1.5543671,4.0332012c0.1383362,0.8968124,0.1936798,2.1875,0.1692657,3.8736992
		h-14.2138672c0.0797577,1.9580078,0.7600861,3.3300781,2.0410156,4.1178398
		c0.7796173,0.4899063,1.7171173,0.7340469,2.8125,0.7340469c1.1637421,0,2.1077423-0.2978516,2.8336639-0.8951797
		c0.3955078-0.3222656,0.7470703-0.7698593,1.0498047-1.3427734h5.2099609
		c-0.1367188,1.1572266-0.7682343,2.3339844-1.8912811,3.5270157c-1.7480469,1.897789-4.1959686,2.8466797-7.3421173,2.8466797
		c-2.5976562,0-4.889328-0.8007812-6.8733826-2.4007149c-1.985672-1.6015625-2.9785156-4.2057304-2.9785156-7.8125
		c0-3.3805351,0.8968201-5.9733067,2.6888123-7.7766933c1.7919922-1.8050117,4.1178284-2.7067051,6.9775391-2.7067051
		C143.5622711,26.1630898,145.0922089,26.4674511,146.4528961,27.0778027z M138.8194275,31.4853554
		c-0.7210236,0.7438164-1.1735077,1.7496758-1.3590546,3.0208321h8.7906952
		c-0.0927734-1.3541641-0.5452423-2.3828125-1.3590546-3.0843086c-0.813797-0.6998692-1.8229065-1.0514317-3.0257111-1.0514317
		C140.556076,30.3704472,139.540451,30.7415409,138.8194275,31.4853554z"/>
	<path fill="#FFFFFF" d="M166.8451385,27.0778027c1.3606873,0.6103516,2.4853516,1.5722656,3.372406,2.8873711
		c0.7991486,1.1588535,1.3183594,2.5032558,1.5543518,4.0332012c0.1383514,0.8968124,0.1936951,2.1875,0.169281,3.8736992
		h-14.2138672c0.0797424,1.9580078,0.7600861,3.3300781,2.0410156,4.1178398
		c0.7796173,0.4899063,1.7171173,0.7340469,2.8125,0.7340469c1.1637268,0,2.1077423-0.2978516,2.8336487-0.8951797
		c0.3955078-0.3222656,0.7470703-0.7698593,1.0498047-1.3427734h5.2099609
		c-0.1367188,1.1572266-0.768219,2.3339844-1.8912659,3.5270157c-1.7480469,1.897789-4.1959686,2.8466797-7.3421326,2.8466797
		c-2.5976562,0-4.8893127-0.8007812-6.8733673-2.4007149c-1.985672-1.6015625-2.9785156-4.2057304-2.9785156-7.8125
		c0-3.3805351,0.8968048-5.9733067,2.688797-7.7766933c1.7919922-1.8050117,4.1178436-2.7067051,6.9775391-2.7067051
		C163.9545135,26.1630898,165.4844666,26.4674511,166.8451385,27.0778027z M159.2116852,31.4853554
		c-0.7210388,0.7438164-1.1735077,1.7496758-1.3590546,3.0208321h8.7906952
		c-0.0927734-1.3541641-0.5452576-2.3828125-1.3590546-3.0843086c-0.813797-0.6998692-1.8229218-1.0514317-3.0257111-1.0514317
		C160.9483337,30.3704472,159.9327087,30.7415409,159.2116852,31.4853554z"/>
	<path fill="#FFFFFF" d="M172.5157166,30.4957714v-3.6344395h2.7213593v-5.442709h5.0488281v5.442709h3.1689453v3.6344395
		h-3.1689453v10.3125019c0,0.7991524,0.1009064,1.2971992,0.3043518,1.4957657
		c0.2034607,0.1953125,0.8235779,0.2945976,1.8619843,0.2945976c0.1546173,0,0.3190155-0.0032539,0.4915314-0.0081367
		c0.1741638-0.0065117,0.3434296-0.0162773,0.5110779-0.0276718v3.8134766l-2.4169922,0.0895195
		c-2.4104919,0.0830078-4.0576172-0.3336601-4.9414062-1.2532539c-0.5729218-0.5843124-0.859375-1.4860039-0.859375-2.7034531
		V30.4957714H172.5157166z"/>
</g>
<g>
	<rect fill="#55ACEE" width="66.6669998" height="66.6669998"/>
	<path fill="#FFFFFF" d="M52.0004158,21.7550583c-1.3738098,0.6093788-2.8498077,1.0208397-4.3993454,1.2059937
		c1.5815697-0.9481277,2.7958984-2.4490719,3.3678818-4.2374153c-1.4798508,0.8774014-3.1191788,1.5152168-4.8637733,1.858551
		c-1.3971977-1.4887562-3.387989-2.4185543-5.5908585-2.4185543c-4.2302856,0-7.6596794,3.4291821-7.6596794,7.6589451
		c0,0.6006813,0.0678673,1.1851101,0.1983376,1.7456341c-6.3657112-0.3194275-12.0094891-3.3686619-15.7870598-8.0028
		c-0.6594296,1.1312027-1.0370884,2.4470444-1.0370884,3.8508511c0,2.6570454,1.3521938,5.0013275,3.4073086,6.3751373
		c-1.255579-0.03969-2.4365749-0.3845329-3.4691315-0.9582348c-0.0007267,0.032032-0.0007267,0.064064-0.0007267,0.0966167
		c0,3.7109566,2.6402702,6.8064919,6.1441956,7.5104027c-0.642868,0.1749992-1.319643,0.2685928-2.0179787,0.2685928
		c-0.493597,0-0.9734955-0.0483322-1.441206-0.1373444c0.9747963,3.0426216,3.8035641,5.257164,7.1551418,5.3192444
		c-2.6214733,2.0543327-5.9239864,3.2786102-9.5126019,3.2786102c-0.6182318,0-1.22787-0.0360909-1.8269882-0.106823
		c3.3897572,2.1733971,7.4155579,3.4409027,11.7411556,3.4409027c14.0885029,0,21.792448-11.6709938,21.792448-21.7927113
		c0-0.3321381-0.0073433-0.6622429-0.0220833-0.990839C49.6747246,24.6400204,50.9735336,23.2911091,52.0004158,21.7550583z"/>
</g>
</svg>